<mxfile host="app.diagrams.net" modified="2023-07-16T06:27:26.098Z" agent="Mozilla/5.0 (Windows NT 10.0; Win64; x64) AppleWebKit/537.36 (KHTML, like Gecko) Chrome/114.0.0.0 Safari/537.36" version="21.5.1" etag="WpNq1rlFl2nisiHGVt9T" type="github">
  <diagram name="Page-1" id="507OZXzL4Jc3Hs1AFq21">
    <mxGraphModel>
      <root>
        <mxCell id="0" />
        <mxCell id="1" parent="0" />
      </root>
    </mxGraphModel>
  </diagram>
</mxfile>
